<svg xmlns="http://www.w3.org/2000/svg" xmlns:xlink="http://www.w3.org/1999/xlink" width="4000" zoomAndPan="magnify" viewBox="0 0 3000 749.999995" height="1000" preserveAspectRatio="xMidYMid meet" version="1.0"><defs><g/><clipPath id="94c5fbbd9a"><path d="M 392 14 L 1023.417969 14 L 1023.417969 591 L 392 591 Z M 392 14 " clip-rule="nonzero"/></clipPath><clipPath id="45a2061e43"><path d="M 26.667969 14 L 659 14 L 659 591 L 26.667969 591 Z M 26.667969 14 " clip-rule="nonzero"/></clipPath></defs><rect x="-300" width="3600" fill="#ffffff" y="-74.999999" height="899.999994" fill-opacity="1"/><rect x="-300" width="3600" fill="#ffffff" y="-74.999999" height="899.999994" fill-opacity="1"/><g clip-path="url(#94c5fbbd9a)"><path fill="#d4a843" d="M 890.714844 14.652344 L 824.269531 129.789062 L 791.023438 187.355469 L 757.820312 244.890625 L 724.539062 302.453125 L 691.332031 360.023438 L 624.847656 475.164062 L 558.359375 475.164062 L 525.121094 417.59375 L 491.914062 360.023438 L 458.671875 302.496094 L 425.429688 360.023438 L 392.222656 417.59375 L 425.464844 475.164062 L 458.671875 532.691406 L 491.914062 590.261719 L 691.332031 590.261719 L 724.539062 532.730469 L 757.78125 475.164062 L 791.023438 417.59375 L 824.269531 360.023438 L 857.476562 302.453125 L 890.714844 244.890625 L 957.164062 129.789062 L 1023.648438 14.652344 Z M 890.714844 14.652344 " fill-opacity="1" fill-rule="nonzero"/></g><g clip-path="url(#45a2061e43)"><path fill="#0f2a42" d="M 425.429688 129.789062 L 491.914062 129.789062 L 525.160156 187.320312 L 558.359375 244.890625 L 591.609375 302.453125 L 624.847656 244.890625 L 658.054688 187.320312 L 624.847656 129.789062 L 591.609375 72.222656 L 558.359375 14.652344 L 359.015625 14.652344 L 325.742188 72.257812 L 292.535156 129.789062 L 259.292969 187.355469 L 226.085938 244.890625 L 192.84375 302.453125 L 159.597656 360.023438 L 93.113281 475.164062 L 59.875 532.730469 L 26.667969 590.261719 L 159.597656 590.261719 L 192.804688 532.691406 L 226.046875 475.164062 L 259.292969 417.59375 L 292.535156 360.023438 L 325.742188 302.453125 L 358.980469 244.890625 L 392.222656 187.355469 Z M 425.429688 129.789062 " fill-opacity="1" fill-rule="nonzero"/></g><g fill="#0f2a42" fill-opacity="1"><g transform="translate(825.860136, 580.499392)"><g><path d="M 156 5.25 C 128.75 5.25 104.5625 -0.5625 83.4375 -12.1875 C 62.3125 -23.8125 45.8125 -39.875 33.9375 -60.375 C 22.0625 -80.875 16.125 -104.5 16.125 -131.25 C 16.125 -158 22.0625 -181.625 33.9375 -202.125 C 45.8125 -222.625 62.3125 -238.6875 83.4375 -250.3125 C 104.5625 -261.9375 128.75 -267.75 156 -267.75 C 183.5 -267.75 207.75 -261.9375 228.75 -250.3125 C 249.75 -238.6875 266.25 -222.625 278.25 -202.125 C 290.25 -181.625 296.25 -158 296.25 -131.25 C 296.25 -104.5 290.25 -80.875 278.25 -60.375 C 266.25 -39.875 249.75 -23.8125 228.75 -12.1875 C 207.75 -0.5625 183.5 5.25 156 5.25 Z M 76.875 -131.25 C 76.875 -115.5 80.25 -101.625 87 -89.625 C 93.75 -77.625 103.0625 -68.25 114.9375 -61.5 C 126.8125 -54.75 140.5 -51.375 156 -51.375 C 171.75 -51.375 185.5625 -54.75 197.4375 -61.5 C 209.3125 -68.25 218.5625 -77.625 225.1875 -89.625 C 231.8125 -101.625 235.125 -115.5 235.125 -131.25 C 235.125 -147 231.8125 -160.875 225.1875 -172.875 C 218.5625 -184.875 209.3125 -194.25 197.4375 -201 C 185.5625 -207.75 171.75 -211.125 156 -211.125 C 140.5 -211.125 126.8125 -207.75 114.9375 -201 C 103.0625 -194.25 93.75 -184.875 87 -172.875 C 80.25 -160.875 76.875 -147 76.875 -131.25 Z M 76.875 -131.25 "/></g></g></g><g fill="#0f2a42" fill-opacity="1"><g transform="translate(1130.728439, 580.499392)"><g><path d="M 31.5 0 L 31.5 -262.5 L 143.625 -262.5 C 163.625 -262.5 181 -258.875 195.75 -251.625 C 210.5 -244.375 221.875 -234 229.875 -220.5 C 237.875 -207 241.875 -190.875 241.875 -172.125 C 241.875 -152.875 237.5 -136.3125 228.75 -122.4375 C 220 -108.5625 207.75 -98.125 192 -91.125 L 246.375 0 L 177.375 0 L 130.5 -81.75 L 91.125 -81.75 L 91.125 0 Z M 90.375 -132 L 135.75 -132 C 150.5 -132 161.8125 -135.4375 169.6875 -142.3125 C 177.5625 -149.1875 181.5 -159 181.5 -171.75 C 181.5 -184.5 177.5625 -194.3125 169.6875 -201.1875 C 161.8125 -208.0625 150.5 -211.5 135.75 -211.5 L 90.375 -211.5 Z M 90.375 -132 "/></g></g></g><g fill="#0f2a42" fill-opacity="1"><g transform="translate(1387.222794, 580.499392)"><g><path d="M 31.5 0 L 31.5 -262.5 L 82.125 -262.5 L 175.5 -126.375 L 268.5 -262.5 L 318.75 -262.5 L 318.75 0 L 259.5 0 L 259.5 -157.875 L 195.75 -64.875 L 154.5 -64.875 L 90.75 -158.25 L 90.75 0 Z M 31.5 0 "/></g></g></g><g fill="#0f2a42" fill-opacity="1"><g transform="translate(1729.965315, 580.499392)"><g><path d="M 10.125 0 L 99.375 -134.25 L 14.25 -262.5 L 82.5 -262.5 L 114 -213.75 L 138 -177.375 L 193.875 -262.5 L 261.75 -262.5 L 177 -134.625 L 266.25 0 L 196.125 0 L 160.125 -55.5 L 138.375 -88.875 L 116.25 -55.5 L 80.25 0 Z M 10.125 0 "/></g></g></g><g fill="#0f2a42" fill-opacity="1"><g transform="translate(1998.834444, 580.499392)"><g/></g></g><g fill="#d4a843" fill-opacity="1"><g transform="translate(2079.461638, 580.499392)"><g><path d="M 94.5 0 L 94.5 -206.625 L 11.25 -206.625 L 11.25 -262.5 L 237.375 -262.5 L 237.375 -206.625 L 154.125 -206.625 L 154.125 0 Z M 94.5 0 "/></g></g></g><g fill="#d4a843" fill-opacity="1"><g transform="translate(2320.581361, 580.499392)"><g><path d="M 3.375 0 L 107.625 -262.5 L 166.125 -262.5 L 270.375 0 L 206.625 0 L 189 -45.375 L 84.75 -45.375 L 67.125 0 Z M 100.125 -92.25 L 174 -92.25 L 136.875 -188.25 Z M 100.125 -92.25 "/></g></g></g><g fill="#d4a843" fill-opacity="1"><g transform="translate(2586.825536, 580.499392)"><g><path d="M 10.125 0 L 99.375 -134.25 L 14.25 -262.5 L 82.5 -262.5 L 114 -213.75 L 138 -177.375 L 193.875 -262.5 L 261.75 -262.5 L 177 -134.625 L 266.25 0 L 196.125 0 L 160.125 -55.5 L 138.375 -88.875 L 116.25 -55.5 L 80.25 0 Z M 10.125 0 "/></g></g></g><g fill="#312f30" fill-opacity="1"><g transform="translate(19.750827, 704.999986)"><g><path d="M 4.46875 0 L 16.984375 -62.5625 L 25.03125 -62.5625 L 14.03125 -7.5 L 44.234375 -7.5 L 42.71875 0 Z M 4.46875 0 "/></g></g></g><g fill="#312f30" fill-opacity="1"><g transform="translate(111.533331, 704.999986)"><g><path d="M -3.125 0 L 35.125 -62.5625 L 42.546875 -62.5625 L 55.6875 0 L 47.8125 0 L 44.859375 -14.203125 L 14.484375 -14.203125 L 5.71875 0 Z M 18.953125 -21.546875 L 43.34375 -21.546875 L 37.09375 -51.5625 Z M 18.953125 -21.546875 "/></g></g></g><g fill="#312f30" fill-opacity="1"><g transform="translate(278.833494, 704.999986)"><g><path d="M 4.46875 0 L 16.984375 -62.5625 L 52.828125 -62.5625 L 51.390625 -55.234375 L 23.5 -55.234375 L 19.21875 -33.609375 L 44.78125 -33.609375 L 43.34375 -26.359375 L 17.78125 -26.359375 L 12.515625 0 Z M 4.46875 0 "/></g></g></g><g fill="#312f30" fill-opacity="1"><g transform="translate(370.347886, 704.999986)"><g><path d="M 4.46875 0 L 16.984375 -62.5625 L 25.03125 -62.5625 L 12.515625 0 Z M 4.46875 0 "/></g></g></g><g fill="#312f30" fill-opacity="1"><g transform="translate(438.269301, 704.999986)"><g><path d="M 25.65625 1.15625 C 20.769531 1.15625 16.613281 0.320312 13.1875 -1.34375 C 9.757812 -3.007812 7.285156 -5.375 5.765625 -8.4375 C 4.242188 -11.507812 3.84375 -15.132812 4.5625 -19.3125 L 12.515625 -19.3125 C 11.859375 -15.3125 12.691406 -12.148438 15.015625 -9.828125 C 17.335938 -7.503906 21.003906 -6.34375 26.015625 -6.34375 C 30.710938 -6.34375 34.519531 -7.25 37.4375 -9.0625 C 40.363281 -10.882812 42.09375 -13.109375 42.625 -15.734375 C 43.226562 -18.710938 42.617188 -21.125 40.796875 -22.96875 C 38.984375 -24.8125 35.332031 -26.421875 29.84375 -27.796875 C 22.28125 -29.765625 16.976562 -32.265625 13.9375 -35.296875 C 10.90625 -38.335938 9.925781 -42.539062 11 -47.90625 C 11.59375 -51.0625 12.972656 -53.816406 15.140625 -56.171875 C 17.316406 -58.523438 20.117188 -60.367188 23.546875 -61.703125 C 26.972656 -63.046875 30.890625 -63.71875 35.296875 -63.71875 C 42.566406 -63.71875 47.988281 -61.945312 51.5625 -58.40625 C 55.144531 -54.863281 56.425781 -50.082031 55.40625 -44.0625 L 47.453125 -44.0625 C 48.171875 -47.875 47.457031 -50.851562 45.3125 -53 C 43.164062 -55.144531 39.648438 -56.21875 34.765625 -56.21875 C 30.535156 -56.21875 26.972656 -55.320312 24.078125 -53.53125 C 21.191406 -51.75 19.507812 -49.546875 19.03125 -46.921875 C 18.4375 -43.878906 19.09375 -41.460938 21 -39.671875 C 22.90625 -37.890625 26.660156 -36.34375 32.265625 -35.03125 C 39.648438 -33.25 44.832031 -30.71875 47.8125 -27.4375 C 50.789062 -24.15625 51.773438 -20.046875 50.765625 -15.109375 C 49.804688 -10.222656 47.148438 -6.289062 42.796875 -3.3125 C 38.453125 -0.332031 32.738281 1.15625 25.65625 1.15625 Z M 25.65625 1.15625 "/></g></g></g><g fill="#312f30" fill-opacity="1"><g transform="translate(537.648049, 704.999986)"><g><path d="M 33.34375 1.15625 C 27.019531 1.15625 21.640625 -0.253906 17.203125 -3.078125 C 12.765625 -5.910156 9.617188 -9.8125 7.765625 -14.78125 C 5.921875 -19.757812 5.625 -25.46875 6.875 -31.90625 C 8.1875 -38.164062 10.597656 -43.675781 14.109375 -48.4375 C 17.628906 -53.207031 21.96875 -56.945312 27.125 -59.65625 C 32.28125 -62.363281 37.925781 -63.71875 44.0625 -63.71875 C 49.007812 -63.71875 53.429688 -62.796875 57.328125 -60.953125 C 61.234375 -59.109375 64.390625 -56.515625 66.796875 -53.171875 C 69.210938 -49.835938 70.660156 -45.878906 71.140625 -41.296875 L 62.921875 -41.296875 C 62.203125 -45.816406 60.203125 -49.375 56.921875 -51.96875 C 53.648438 -54.5625 49.453125 -55.859375 44.328125 -55.859375 C 39.503906 -55.859375 35.035156 -54.769531 30.921875 -52.59375 C 26.804688 -50.414062 23.347656 -47.4375 20.546875 -43.65625 C 17.753906 -39.875 15.878906 -35.539062 14.921875 -30.65625 C 13.972656 -25.945312 14.125 -21.789062 15.375 -18.1875 C 16.625 -14.582031 18.78125 -11.765625 21.84375 -9.734375 C 24.914062 -7.710938 28.75 -6.703125 33.34375 -6.703125 C 36.914062 -6.703125 40.335938 -7.328125 43.609375 -8.578125 C 46.890625 -9.828125 49.882812 -11.597656 52.59375 -13.890625 C 55.300781 -16.191406 57.550781 -18.890625 59.34375 -21.984375 L 67.921875 -21.984375 C 65.722656 -17.035156 62.847656 -12.832031 59.296875 -9.375 C 55.753906 -5.925781 51.765625 -3.304688 47.328125 -1.515625 C 42.890625 0.265625 38.226562 1.15625 33.34375 1.15625 Z M 33.34375 1.15625 "/></g></g></g><g fill="#312f30" fill-opacity="1"><g transform="translate(652.308551, 704.999986)"><g><path d="M -3.125 0 L 35.125 -62.5625 L 42.546875 -62.5625 L 55.6875 0 L 47.8125 0 L 44.859375 -14.203125 L 14.484375 -14.203125 L 5.71875 0 Z M 18.953125 -21.546875 L 43.34375 -21.546875 L 37.09375 -51.5625 Z M 18.953125 -21.546875 "/></g></g></g><g fill="#312f30" fill-opacity="1"><g transform="translate(755.798155, 704.999986)"><g><path d="M 4.46875 0 L 16.984375 -62.5625 L 25.03125 -62.5625 L 14.03125 -7.5 L 44.234375 -7.5 L 42.71875 0 Z M 4.46875 0 "/></g></g></g><g fill="#312f30" fill-opacity="1"><g transform="translate(847.580682, 704.999986)"><g><path d="M 4.46875 0 L 16.984375 -62.5625 L 25.03125 -62.5625 L 12.515625 0 Z M 4.46875 0 "/></g></g></g><g fill="#312f30" fill-opacity="1"><g transform="translate(915.502096, 704.999986)"><g><path d="M 19.484375 0 L 30.484375 -55.0625 L 9.46875 -55.0625 L 11 -62.5625 L 61.125 -62.5625 L 59.609375 -55.0625 L 38.4375 -55.0625 L 27.53125 0 Z M 19.484375 0 "/></g></g></g><g fill="#312f30" fill-opacity="1"><g transform="translate(1013.450975, 704.999986)"><g><path d="M 4.46875 0 L 16.984375 -62.5625 L 54.96875 -62.5625 L 53.53125 -55.234375 L 23.5 -55.234375 L 19.578125 -35.484375 L 47.28125 -35.484375 L 45.84375 -28.25 L 18.140625 -28.25 L 14.03125 -7.328125 L 44.859375 -7.328125 L 43.4375 0 Z M 33.25 -68.734375 L 41.5625 -81.15625 L 49.875 -81.15625 L 40.484375 -68.734375 Z M 33.25 -68.734375 "/></g></g></g><g fill="#312f30" fill-opacity="1"><g transform="translate(1172.797402, 704.999986)"><g><path d="M -3.125 0 L 35.125 -62.5625 L 42.546875 -62.5625 L 55.6875 0 L 47.8125 0 L 44.859375 -14.203125 L 14.484375 -14.203125 L 5.71875 0 Z M 18.953125 -21.546875 L 43.34375 -21.546875 L 37.09375 -51.5625 Z M 18.953125 -21.546875 "/></g></g></g><g fill="#312f30" fill-opacity="1"><g transform="translate(1276.287052, 704.999986)"><g><path d="M 28.328125 1.078125 C 20.640625 1.078125 15.066406 -1.316406 11.609375 -6.109375 C 8.160156 -10.910156 7.269531 -17.484375 8.9375 -25.828125 L 16.265625 -62.5625 L 24.21875 -62.5625 L 16.890625 -25.734375 C 14.328125 -12.984375 18.257812 -6.609375 28.6875 -6.609375 C 34.289062 -6.609375 38.816406 -8.273438 42.265625 -11.609375 C 45.722656 -14.953125 48.109375 -19.867188 49.421875 -26.359375 L 56.65625 -62.5625 L 64.625 -62.5625 L 57.109375 -25.203125 C 55.441406 -16.804688 52.164062 -10.328125 47.28125 -5.765625 C 42.394531 -1.203125 36.078125 1.078125 28.328125 1.078125 Z M 28.328125 1.078125 "/></g></g></g><g fill="#312f30" fill-opacity="1"><g transform="translate(1383.083219, 704.999986)"><g><path d="M 32.984375 1.15625 C 26.660156 1.15625 21.3125 -0.238281 16.9375 -3.03125 C 12.5625 -5.832031 9.476562 -9.707031 7.6875 -14.65625 C 5.894531 -19.601562 5.625 -25.296875 6.875 -31.734375 C 8.132812 -38.109375 10.550781 -43.691406 14.125 -48.484375 C 17.695312 -53.285156 22.117188 -57.023438 27.390625 -59.703125 C 32.660156 -62.378906 38.394531 -63.71875 44.59375 -63.71875 C 49.539062 -63.71875 53.890625 -62.835938 57.640625 -61.078125 C 61.398438 -59.328125 64.410156 -56.898438 66.671875 -53.796875 C 68.929688 -50.703125 70.273438 -47.097656 70.703125 -42.984375 L 62.46875 -42.984375 C 61.394531 -47.160156 59.296875 -50.347656 56.171875 -52.546875 C 53.046875 -54.753906 49.097656 -55.859375 44.328125 -55.859375 C 39.566406 -55.859375 35.128906 -54.785156 31.015625 -52.640625 C 26.898438 -50.492188 23.425781 -47.539062 20.59375 -43.78125 C 17.769531 -40.03125 15.851562 -35.6875 14.84375 -30.75 C 13.882812 -25.976562 14.015625 -21.773438 15.234375 -18.140625 C 16.460938 -14.503906 18.640625 -11.6875 21.765625 -9.6875 C 24.890625 -7.695312 28.75 -6.703125 33.34375 -6.703125 C 37.570312 -6.703125 41.503906 -7.535156 45.140625 -9.203125 C 48.773438 -10.867188 51.914062 -13.191406 54.5625 -16.171875 C 57.21875 -19.148438 59.109375 -22.578125 60.234375 -26.453125 L 35.484375 -26.453125 L 37 -33.96875 L 70.96875 -33.875 C 69.832031 -26.90625 67.488281 -20.78125 63.9375 -15.5 C 60.394531 -10.226562 55.972656 -6.132812 50.671875 -3.21875 C 45.367188 -0.300781 39.472656 1.15625 32.984375 1.15625 Z M 32.984375 1.15625 "/></g></g></g><g fill="#312f30" fill-opacity="1"><g transform="translate(1498.458702, 704.999986)"><g><path d="M 4.46875 0 L 16.984375 -62.5625 L 23.859375 -62.5625 L 41.015625 -25.46875 L 72.9375 -62.5625 L 80.609375 -62.5625 L 68.109375 0 L 60.15625 0 L 65.421875 -26.640625 L 69.796875 -47.375 L 43.25 -16.625 L 36.828125 -16.625 L 22.34375 -47.90625 L 17.875 -26.640625 L 12.515625 0 Z M 4.46875 0 "/></g></g></g><g fill="#312f30" fill-opacity="1"><g transform="translate(1621.96663, 704.999986)"><g><path d="M 4.46875 0 L 16.984375 -62.5625 L 54.96875 -62.5625 L 53.53125 -55.234375 L 23.5 -55.234375 L 19.578125 -35.484375 L 47.28125 -35.484375 L 45.84375 -28.25 L 18.140625 -28.25 L 14.03125 -7.328125 L 44.859375 -7.328125 L 43.4375 0 Z M 4.46875 0 "/></g></g></g><g fill="#312f30" fill-opacity="1"><g transform="translate(1717.502453, 704.999986)"><g><path d="M 4.46875 0 L 16.984375 -62.5625 L 24.3125 -62.5625 L 48.796875 -12.875 L 51.484375 -26.453125 L 58.71875 -62.5625 L 66.671875 -62.5625 L 54.15625 0 L 46.921875 0 L 22.4375 -49.515625 L 20.28125 -38.875 L 12.515625 0 Z M 4.46875 0 "/></g></g></g><g fill="#312f30" fill-opacity="1"><g transform="translate(1827.069098, 704.999986)"><g><path d="M 19.484375 0 L 30.484375 -55.0625 L 9.46875 -55.0625 L 11 -62.5625 L 61.125 -62.5625 L 59.609375 -55.0625 L 38.4375 -55.0625 L 27.53125 0 Z M 19.484375 0 "/></g></g></g><g fill="#312f30" fill-opacity="1"><g transform="translate(1925.017885, 704.999986)"><g><path d="M 4.46875 0 L 16.984375 -62.5625 L 54.96875 -62.5625 L 53.53125 -55.234375 L 23.5 -55.234375 L 19.578125 -35.484375 L 47.28125 -35.484375 L 45.84375 -28.25 L 18.140625 -28.25 L 14.03125 -7.328125 L 44.859375 -7.328125 L 43.4375 0 Z M 33.25 -68.734375 L 41.5625 -81.15625 L 49.875 -81.15625 L 40.484375 -68.734375 Z M 33.25 -68.734375 "/></g></g></g><g fill="#312f30" fill-opacity="1"><g transform="translate(2020.553892, 704.999986)"><g><path d="M 4.46875 0 L 16.984375 -62.5625 L 54.96875 -62.5625 L 53.53125 -55.234375 L 23.5 -55.234375 L 19.578125 -35.484375 L 47.28125 -35.484375 L 45.84375 -28.25 L 18.140625 -28.25 L 14.03125 -7.328125 L 44.859375 -7.328125 L 43.4375 0 Z M 4.46875 0 "/></g></g></g><g fill="#312f30" fill-opacity="1"><g transform="translate(2179.90032, 704.999986)"><g><path d="M 4.46875 0 L 16.984375 -62.5625 L 37.890625 -62.5625 C 42.597656 -62.5625 46.53125 -61.664062 49.6875 -59.875 C 52.84375 -58.09375 55.09375 -55.59375 56.4375 -52.375 C 57.78125 -49.15625 58.003906 -45.367188 57.109375 -41.015625 C 55.796875 -34.410156 52.785156 -29.347656 48.078125 -25.828125 C 43.367188 -22.316406 37.382812 -20.5625 30.125 -20.5625 L 16.625 -20.5625 L 12.515625 0 Z M 18.046875 -27.890625 L 30.5625 -27.890625 C 35.8125 -27.890625 40 -29.171875 43.125 -31.734375 C 46.25 -34.296875 48.203125 -37.660156 48.984375 -41.828125 C 49.816406 -46.054688 49.25 -49.316406 47.28125 -51.609375 C 45.3125 -53.910156 41.765625 -55.0625 36.640625 -55.0625 L 23.5 -55.0625 Z M 18.046875 -27.890625 "/></g></g></g><g fill="#312f30" fill-opacity="1"><g transform="translate(2278.653489, 704.999986)"><g><path d="M -3.125 0 L 35.125 -62.5625 L 42.546875 -62.5625 L 55.6875 0 L 47.8125 0 L 44.859375 -14.203125 L 14.484375 -14.203125 L 5.71875 0 Z M 18.953125 -21.546875 L 43.34375 -21.546875 L 37.09375 -51.5625 Z M 18.953125 -21.546875 "/></g></g></g><g fill="#312f30" fill-opacity="1"><g transform="translate(2382.143047, 704.999986)"><g><path d="M 4.46875 0 L 16.984375 -62.5625 L 39.765625 -62.5625 C 44.359375 -62.5625 48.171875 -61.695312 51.203125 -59.96875 C 54.242188 -58.238281 56.390625 -55.820312 57.640625 -52.71875 C 58.898438 -49.625 59.109375 -46.023438 58.265625 -41.921875 C 57.316406 -37.035156 55.21875 -32.96875 51.96875 -29.71875 C 48.71875 -26.46875 44.625 -24.304688 39.6875 -23.234375 L 50.765625 0 L 42.1875 0 L 31.453125 -22.4375 L 16.984375 -22.4375 L 12.515625 0 Z M 18.5 -29.9375 L 32.359375 -29.9375 C 37.484375 -29.9375 41.546875 -31.082031 44.546875 -33.375 C 47.554688 -35.675781 49.476562 -38.820312 50.3125 -42.8125 C 51.09375 -46.625 50.515625 -49.617188 48.578125 -51.796875 C 46.640625 -53.972656 43.109375 -55.0625 37.984375 -55.0625 L 23.5 -55.0625 Z M 18.5 -29.9375 "/></g></g></g><g fill="#312f30" fill-opacity="1"><g transform="translate(2548.370944, 704.999986)"><g><path d="M 4.46875 0 L 16.984375 -62.5625 L 25.03125 -62.5625 L 14.03125 -7.5 L 44.234375 -7.5 L 42.71875 0 Z M 4.46875 0 "/></g></g></g><g fill="#312f30" fill-opacity="1"><g transform="translate(2640.153288, 704.999986)"><g><path d="M 10.09375 -40.390625 L 14.296875 -62.5625 L 21.359375 -62.5625 L 16.71875 -40.390625 Z M 10.09375 -40.390625 "/></g></g></g><g fill="#312f30" fill-opacity="1"><g transform="translate(2701.729823, 704.999986)"><g><path d="M 4.46875 0 L 16.984375 -62.5625 L 25.03125 -62.5625 L 12.515625 0 Z M 4.46875 0 "/></g></g></g><g fill="#312f30" fill-opacity="1"><g transform="translate(2769.651146, 704.999986)"><g><path d="M -3.125 0 L 35.125 -62.5625 L 42.546875 -62.5625 L 55.6875 0 L 47.8125 0 L 44.859375 -14.203125 L 14.484375 -14.203125 L 5.71875 0 Z M 18.953125 -21.546875 L 43.34375 -21.546875 L 37.09375 -51.5625 Z M 18.953125 -21.546875 "/></g></g></g></svg>